HIERARCHY
ROOT RootJoint
{
    OFFSET   0.000000   0.000000   0.000000
    CHANNELS 6 Xposition Yposition Zposition Xrotation Yrotation Zrotation
    JOINT pelvis_lowerback
    {
        OFFSET   0.000000   0.093605   0.000000
        CHANNELS 3 Xrotation Yrotation Zrotation
        JOINT lowerback_torso
        {
            OFFSET   0.000000   0.100000   0.000000
            CHANNELS 3 Xrotation Yrotation Zrotation
            JOINT torso_head
            {
                OFFSET   0.000000   0.282350   0.000000
                CHANNELS 3 Xrotation Yrotation Zrotation
                End Site
                {
                    OFFSET   0.000000   0.192650   0.000000
                }
            }
            JOINT rTorso_Clavicle
            {
                OFFSET  -0.001000   0.157500   0.000000
                CHANNELS 3 Xrotation Yrotation Zrotation
                JOINT rShoulder
                {
                    OFFSET  -0.117647   0.000000   0.000000
                    CHANNELS 3 Xrotation Yrotation Zrotation
                    JOINT rElbow
                    {
                        OFFSET  -0.245000   0.000000   0.000000
                        CHANNELS 3 Xrotation Yrotation Zrotation
                        JOINT rWrist
                        {
                            OFFSET  -0.240000   0.000000   0.000000
                            CHANNELS 3 Xrotation Yrotation Zrotation
                            End Site
                            {
                                OFFSET  -0.116353  -0.002500   0.000000
                            }
                        }
                    }
                }
            }
            JOINT lTorso_Clavicle
            {
                OFFSET   0.001000   0.157500   0.000000
                CHANNELS 3 Xrotation Yrotation Zrotation
                JOINT lShoulder
                {
                    OFFSET   0.117647   0.000000   0.000000
                    CHANNELS 3 Xrotation Yrotation Zrotation
                    JOINT lElbow
                    {
                        OFFSET   0.245000   0.000000   0.000000
                        CHANNELS 3 Xrotation Yrotation Zrotation
                        JOINT lWrist
                        {
                            OFFSET   0.240000   0.000000   0.000000
                            CHANNELS 3 Xrotation Yrotation Zrotation
                            End Site
                            {
                                OFFSET   0.116353  -0.002500   0.000000
                            }
                        }
                    }
                }
            }
        }
    }
    JOINT rHip
    {
        OFFSET  -0.100000  -0.051395   0.000000
        CHANNELS 3 Xrotation Yrotation Zrotation
        JOINT rKnee
        {
            OFFSET   0.000000  -0.410000   0.000000
            CHANNELS 3 Xrotation Yrotation Zrotation
            JOINT rAnkle
            {
                OFFSET   0.000000  -0.390000   0.000000
                CHANNELS 3 Xrotation Yrotation Zrotation
                JOINT rToeJoint
                {
                    OFFSET   0.000000  -0.050000   0.130000
                    CHANNELS 3 Xrotation Yrotation Zrotation
                    End Site
                    {
                        OFFSET  -0.010000   0.002000   0.060000
                    }
                }
            }
        }
    }
    JOINT lHip
    {
        OFFSET   0.100000  -0.051395   0.000000
        CHANNELS 3 Xrotation Yrotation Zrotation
        JOINT lKnee
        {
            OFFSET   0.000000  -0.410000   0.000000
            CHANNELS 3 Xrotation Yrotation Zrotation
            JOINT lAnkle
            {
                OFFSET   0.000000  -0.390000   0.000000
                CHANNELS 3 Xrotation Yrotation Zrotation
                JOINT lToeJoint
                {
                    OFFSET   0.000000  -0.050000   0.130000
                    CHANNELS 3 Xrotation Yrotation Zrotation
                    End Site
                    {
                        OFFSET   0.010000   0.002000   0.060000
                    }
                }
            }
        }
    }
}
MOTION
Frames: 11
Frame Time:   0.008333
 -2.384106   0.895268   7.588820   1.058426   9.650317  -1.350833   0.379774  -0.974983  -1.426557  -1.552384  -1.053949   1.438371  -1.660276   2.405601   1.068429   4.296968  -3.026182   8.478769  14.392431  14.758925  47.734577  -0.000103  35.671373   0.000653   6.769174   2.669041  -7.070366  -1.003906  -1.415030  -8.385234  -1.504969 -11.982780 -47.110870  -0.000343 -38.853819  -0.000461   4.276061  -4.691272  11.432107 -21.904978   3.103541   2.670133  19.339916  -0.001016  -0.000334  -1.359146  -2.980415   1.306841   0.982609   0.000401   0.000380   4.929590  -5.341772   1.596366  26.709559  -0.004904   0.002288 -15.638052  -4.685872   0.287669 -19.001781  -0.007472  -0.000650
 -2.384790   0.896082   7.596291   1.017526   9.794341  -1.583075   0.320525  -0.989326  -1.275814  -1.577458  -1.055978   1.553173  -1.641143   2.340785   1.062399   4.353215  -3.033202   8.452969  14.399094  14.774971  47.632673  -0.000224  35.853990   0.000366   6.744861   2.531727  -7.025560  -0.928486  -1.381003  -8.443675  -1.082559 -11.772700 -47.409143  -0.001427 -38.478126  -0.000188   4.335461  -4.803942  11.367842 -21.328000   2.972782   3.038326  19.247684  -0.000656  -0.000378  -1.324122  -2.978276   0.924825   1.135427   0.000606   0.000462   4.180195  -5.284384   1.933859  29.051596  -0.004797   0.007286 -14.654713  -4.845461  -0.092250 -20.772890  -0.012442  -0.004280
 -2.385351   0.897013   7.603786   0.922243   9.873047  -1.772057   0.274764  -0.956719  -1.145483  -1.569937  -1.030539   1.658306  -1.618373   2.280804   1.066702   4.397338  -3.038209   8.409142  14.397501  14.796237  47.533646  -0.000353  36.039269   0.000138   6.731235   2.481381  -6.998290  -0.816114  -1.330156  -8.508855  -0.651077 -11.557231 -47.701840  -0.002305 -38.102370   0.000040   4.371585  -4.787258  11.219634 -20.654258   2.887792   3.381985  19.081377  -0.000250  -0.000441  -1.340893  -2.967504   0.554052   1.258097   0.000703   0.000466   3.401154  -5.202067   2.212479  31.506803  -0.004404   0.010902 -13.635768  -4.986502  -0.451083 -21.532472  -0.012677  -0.005291
 -2.385817   0.897936   7.611314   0.811853   9.898044  -1.930708   0.215782  -0.896000  -1.029737  -1.556594  -0.977481   1.749421  -1.595672   2.225064   1.072958   4.435503  -3.042963   8.354712  14.394278  14.816659  47.436112  -0.000488  36.215896  -0.000011   6.722190   2.464205  -6.982583  -0.681002  -1.256001  -8.572489  -0.222682 -11.339782 -47.981400  -0.002859 -37.741232   0.000313   4.393677  -4.705471  11.039142 -19.957623   2.818206   3.700355  18.901295   0.000095  -0.000414  -1.376246  -2.955755   0.204499   1.365040   0.000734   0.000409   2.659231  -5.121421   2.454265  33.879277  -0.004119   0.012686 -12.609264  -5.121023  -0.790924 -21.445201  -0.009808  -0.004098
 -2.386214   0.898784   7.618839   0.702586   9.891601  -2.073254   0.143685  -0.820153  -0.921957  -1.548929  -0.907681   1.830897  -1.575876   2.173064   1.079602   4.468420  -3.047319   8.293111  14.390139  14.835135  47.339296  -0.000616  36.382272  -0.000102   6.714937   2.459105  -6.979111  -0.536208  -1.167835  -8.631019   0.193435 -11.125814 -48.244367  -0.003132 -37.397703   0.000603   4.407456  -4.588544  10.853366 -19.270004   2.755272   4.001125  18.732083   0.000348  -0.000333  -1.414929  -2.944755  -0.122207   1.460772   0.000724   0.000329   1.962455  -5.049698   2.677516  36.121566  -0.003956   0.013268 -11.593105  -5.253986  -1.112297 -20.710894  -0.005259  -0.001896
 -2.386559   0.899529   7.626331   0.600553   9.869760  -2.208401   0.062382  -0.737079  -0.818491  -1.549469  -0.829326   1.906598  -1.559256   2.124504   1.086376   4.496125  -3.050596   8.227356  14.384848  14.851951  47.243571  -0.000724  36.538420  -0.000155   6.708575   2.459078  -6.987599  -0.390772  -1.073838  -8.683366   0.591159 -10.919814 -48.489899  -0.003193 -37.073310   0.000879   4.416495  -4.453774  10.673578 -18.604874   2.696461   4.290119  18.584429   0.000510  -0.000241  -1.449831  -2.934749  -0.426756   1.547525   0.000690   0.000252   1.309911  -4.988021   2.892408  38.222374  -0.003836   0.013183 -10.598646  -5.384363  -1.414733 -19.485665  -0.000026   0.000554
 -2.386855   0.900129   7.633737   0.504500   9.845362  -2.350776  -0.017941  -0.652593  -0.707569  -1.556311  -0.748460   1.982237  -1.545401   2.079140   1.093434   4.517296  -3.051041   8.156473  14.377376  14.867848  47.147808  -0.000807  36.685217  -0.000191   6.702874   2.463114  -7.008685  -0.251936  -0.981679  -8.729651   0.965537 -10.726139 -48.719495  -0.003109 -36.769528   0.001106   4.423557  -4.315239  10.503988 -17.968663   2.638360   4.580537  18.466735   0.000586  -0.000167  -1.475815  -2.926182  -0.709424   1.626446   0.000642   0.000188   0.681852  -4.943317   3.095332  40.136036  -0.003500   0.012472  -9.609882  -5.529579  -1.705474 -17.501352   0.006982   0.002998
 -2.387177   0.900929   7.640711   0.442334  10.001163  -2.501574  -0.043782  -0.626855  -0.600181  -1.579157  -0.741029   2.057971  -1.535824   1.966161   1.138344   4.600975  -3.050479   8.068952  14.307286  14.822519  47.054626  -0.001565  37.281101  -0.000574   6.685819   2.243037  -6.973637  -0.140231  -0.992837  -8.704974   1.359362 -10.627949 -48.979827  -0.004259 -36.101470   0.000643   4.461492  -4.346872  10.308180 -17.290311   2.512142   4.833701  18.217306   0.000815  -0.000286  -1.639472  -2.911514  -1.008741   1.753730   0.000683   0.000239  -0.272958  -4.810308   3.345459  42.427585  -0.000440   0.017576  -8.643911  -5.495470  -1.990951 -15.794310   0.011105   0.011511
 -2.387412   0.901824   7.647535   0.361208  10.181499  -2.606976  -0.042192  -0.587127  -0.526138  -1.578149  -0.729047   2.114892  -1.521448   1.858263   1.184997   4.660487  -3.041776   7.973549  14.223562  14.795791  46.968759  -0.002067  37.863174  -0.001193   6.685716   2.177381  -6.967087  -0.024374  -1.007044  -8.676123   1.739932 -10.531363 -49.220276  -0.004961 -35.459671   0.000444   4.482708  -4.264115  10.055994 -16.567388   2.414312   5.037864  17.915374   0.001034  -0.000489  -1.833451  -2.893067  -1.294497   1.858890   0.000684   0.000294  -1.265171  -4.668859   3.555180  44.614856   0.002817   0.021785  -7.739597  -5.464030  -2.257880 -14.235900   0.014215   0.017754
 -2.387548   0.902757   7.654243   0.272450  10.332345  -2.682624  -0.030725  -0.518175  -0.467628  -1.565989  -0.690648   2.157055  -1.504114   1.758172   1.227893   4.702628  -3.022625   7.874136  14.135024  14.778644  46.883027  -0.002366  38.413407  -0.001854   6.692635   2.169325  -6.977360   0.096034  -1.008545  -8.646991   2.105898 -10.434106 -49.444688  -0.005249 -34.855388   0.000506   4.496237  -4.142457   9.797795 -15.828448   2.313964   5.207006  17.594860   0.001220  -0.000533  -2.094350  -2.900669  -1.580386   1.502597   0.000080   0.000120  -2.258909  -4.531261   3.730555  46.646392   0.005315   0.023967  -6.896584  -5.437813  -2.508283 -12.811769   0.016340   0.021302
 -2.387597   0.903660   7.660871   0.176149  10.459113  -2.733173  -0.013916  -0.430141  -0.422681  -1.547128  -0.631519   2.188507  -1.485439   1.665234   1.267344   4.732665  -2.996804   7.771867  14.045480  14.767521  46.797940  -0.002525  38.931023  -0.002445   6.702746   2.186707  -6.998995   0.219091  -0.997792  -8.614767   2.456854 -10.336439 -49.652728  -0.005217 -34.287770   0.000725   4.505583  -4.003331   9.547623 -15.086554   2.222970   5.348903  17.272170   0.001353  -0.000494  -2.355257  -2.909128  -1.848571   1.194192  -0.000308   0.000065  -3.239452  -4.404166   3.880858  48.528312   0.007015   0.024681  -6.111014  -5.416451  -2.742954 -11.510353   0.017550   0.022885
